<svg xmlns="http://www.w3.org/2000/svg" viewBox="0 0 200 64" role="img" aria-label="Mauri Echo">
  <defs>
    <linearGradient id="echoGradient" x1="0" x2="1" y1="0" y2="0">
      <stop offset="0%" stop-color="#0f630e"/>
      <stop offset="100%" stop-color="#1a9d18"/>
    </linearGradient>
  </defs>
  <!-- School mark: stylized open book / leaf -->
  <g transform="translate(6,6)" fill="#0f630e">
    <path d="M0 12 C6 4, 18 0, 26 6 L26 42 C18 36, 6 40, 0 48 Z"/>
    <path d="M28 6 C36 0, 48 4, 54 12 L54 48 C48 40, 36 36, 28 42 Z"/>
    <circle cx="13" cy="16" r="4" fill="#ffffff"/>
    <circle cx="41" cy="16" r="4" fill="#ffffff"/>
  </g>
  <!-- Echo sound waves -->
  <g transform="translate(64,16)" fill="none" stroke="url(#echoGradient)" stroke-width="5" stroke-linecap="round">
    <path d="M0 16 C10 4, 22 4, 32 16 S54 28, 64 16"/>
    <path d="M72 8 C80 2, 90 2, 98 8 S108 22, 116 16"/>
  </g>
  <!-- Wordmark -->
  <text x="70" y="54" font-family="system-ui, -apple-system, sans-serif" font-weight="800" font-size="22" fill="#0f630e">Mauri Echo</text>
</svg>