<?xml version="1.0" standalone="no"?>
<!DOCTYPE svg PUBLIC "-//W3C//DTD SVG 20010904//EN"
 "http://www.w3.org/TR/2001/REC-SVG-20010904/DTD/svg10.dtd">
<svg version="1.0" xmlns="http://www.w3.org/2000/svg"
 width="800.000000pt" height="546.000000pt" viewBox="0 0 800.000000 546.000000"
 preserveAspectRatio="xMidYMid meet">
<metadata>
Created by potrace 1.16, written by Peter Selinger 2001-2019
</metadata>
<g transform="translate(0.000000,546.000000) scale(0.100000,-0.100000)"
fill="#0f630e" stroke="none" stroke="none">
<path d="M2574 4442 c-121 -118 -218 -218 -216 -223 1 -5 -4 -8 -10 -7 -7 2
-12 -3 -10 -10 1 -6 -4 -11 -10 -10 -7 2 -12 -3 -10 -10 1 -6 -4 -11 -10 -10
-7 2 -12 -3 -10 -10 1 -6 -4 -11 -10 -10 -7 2 -12 -3 -10 -10 1 -6 -4 -11 -10
-10 -7 2 -12 -3 -10 -10 1 -8 -1 -11 -6 -8 -12 7 -74 -58 -65 -68 5 -4 1 -6
-7 -4 -8 2 -14 -3 -13 -9 2 -7 -3 -12 -10 -10 -6 1 -11 -4 -10 -10 2 -7 -3
-12 -10 -10 -6 1 -11 -4 -10 -10 2 -7 -3 -12 -9 -10 -17 3 -20 -940 -4 -962 7
-10 7 -13 1 -9 -8 5 -11 -142 -11 -467 -1 -474 0 -474 20 -474 12 0 54 -1 94
-2 40 -1 74 0 77 2 2 3 34 2 70 -1 36 -3 71 -2 78 2 7 4 19 3 27 -2 8 -5 22
-5 32 1 13 7 18 6 18 -3 0 -10 2 -10 8 -1 5 8 13 9 22 3 8 -5 21 -5 32 1 13 7
18 6 18 -3 0 -8 3 -9 8 -3 4 6 14 10 22 10 8 0 18 -4 22 -10 5 -7 8 -6 8 0 0
6 9 11 20 11 11 0 20 -5 20 -11 0 -6 3 -7 8 0 4 6 14 10 22 10 8 0 18 -4 22
-10 5 -7 8 -6 8 0 0 6 9 11 20 11 11 0 20 -5 20 -11 0 -6 3 -7 8 0 4 6 14 10
22 10 8 0 18 -4 22 -10 5 -7 8 -6 8 0 0 6 9 11 20 11 11 0 20 -5 20 -11 0 -6
3 -7 8 0 10 14 42 15 42 1 0 -7 3 -7 8 -1 4 6 14 10 22 10 8 0 18 -4 22 -10 5
-6 8 -5 8 3 0 9 5 10 19 2 13 -7 22 -7 26 0 4 6 13 7 24 1 10 -6 23 -6 31 -1
8 5 21 5 30 0 9 -5 22 -5 30 0 8 5 17 7 21 4 6 -3 238 -8 276 -5 9 1 12 56 12
224 0 122 1 228 1 235 0 7 40 -27 89 -77 80 -82 114 -111 95 -79 -4 7 -3 8 5
4 6 -4 9 -12 5 -17 -8 -14 84 -102 98 -93 7 5 8 3 4 -5 -8 -13 23 -43 36 -35
4 3 5 -2 2 -10 -6 -16 28 -40 40 -28 4 3 4 -2 0 -13 -6 -15 -4 -17 10 -12 10
4 15 3 11 -3 -7 -12 65 -81 77 -74 4 3 5 -2 2 -10 -6 -14 5 -21 28 -17 4 0 5
-6 2 -14 -11 -27 4 -16 87 64 52 51 78 84 73 92 -4 8 -3 10 4 5 12 -7 139 110
134 125 -1 5 4 8 10 7 7 -2 12 3 10 10 -1 6 2 11 7 10 11 -4 157 143 154 154
-2 4 5 4 14 1 9 -4 14 -2 11 3 -3 5 0 14 7 21 10 10 13 -33 11 -228 0 -153 3
-239 9 -240 56 -6 133 -3 128 5 -4 5 -1 6 7 1 20 -12 250 -12 250 0 0 6 3 6 8
0 8 -13 22 -13 41 -1 9 6 12 5 8 -1 -8 -13 36 -11 45 2 5 6 8 5 8 -4 0 -10 3
-11 14 -2 11 9 16 9 21 0 6 -8 10 -7 16 2 6 10 9 11 9 2 0 -7 5 -13 11 -13 5
0 7 5 3 12 -5 7 -3 8 7 2 21 -13 39 -14 39 -1 0 8 3 8 8 2 8 -13 22 -13 41 -1
9 6 12 5 8 -1 -8 -13 36 -11 45 2 5 6 8 5 8 -4 0 -10 3 -11 13 -2 8 6 17 7 21
3 11 -10 30 -9 38 3 5 6 8 5 8 -4 0 -11 3 -11 17 0 9 8 14 9 11 4 -4 -6 24
-10 77 -10 46 0 81 3 78 8 -3 5 3 4 13 -1 28 -15 36 -15 45 0 6 8 9 9 9 1 0
-13 18 -12 39 1 8 5 12 5 9 0 -4 -5 14 -9 37 -10 29 0 42 3 38 10 -4 6 0 5 8
-1 12 -10 18 -10 29 0 10 9 11 9 6 0 -4 -7 -3 -13 3 -13 5 0 12 6 14 13 4 9 6
9 6 0 1 -7 6 -13 12 -13 5 0 7 6 3 13 -5 8 -2 8 9 -2 14 -11 17 -11 17 0 0 9
3 10 8 4 7 -11 57 -14 67 -4 3 3 5 257 4 565 0 307 0 568 0 579 0 11 1 186 1
389 l1 370 -112 112 c-62 62 -117 110 -122 107 -6 -3 -7 -2 -4 4 8 13 -47 66
-58 56 -4 -5 -5 -3 -2 3 6 11 -102 121 -115 116 -5 -1 -7 2 -6 7 5 15 -102
112 -114 105 -7 -4 -8 -3 -4 4 4 7 -25 44 -72 92 -64 64 -82 77 -91 67 -6 -8
-7 -17 -3 -21 4 -4 0 -6 -8 -4 -8 2 -14 -3 -12 -10 1 -6 -4 -11 -10 -10 -7 2
-12 -3 -10 -10 1 -8 -2 -11 -6 -8 -12 7 -44 -28 -35 -38 5 -4 1 -6 -7 -4 -8 2
-14 -3 -12 -10 1 -6 -4 -11 -10 -10 -7 2 -12 -3 -10 -10 1 -6 -4 -11 -10 -10
-7 2 -12 -3 -10 -10 1 -6 -2 -11 -7 -10 -5 2 -86 -73 -180 -166 l-171 -169 -1
219 c-1 121 0 229 1 242 l1 22 -692 0 c-577 0 -690 -2 -680 -13 6 -8 8 -17 4
-21 -11 -10 -10 -135 1 -129 5 4 6 1 0 -8 -12 -19 -12 -189 0 -182 5 4 6 1 0
-8 -11 -18 -12 -51 -2 -66 5 -6 5 -14 -2 -18 -6 -3 -8 -11 -5 -16 17 -26 -17
-3 -65 46 -29 30 -58 51 -63 48 -6 -3 -7 -2 -4 4 8 13 -57 76 -67 66 -4 -5 -6
-1 -4 7 2 8 -3 14 -10 12 -8 -1 -11 1 -8 6 6 10 -74 88 -86 85 -5 -2 -7 1 -5
5 4 14 -93 103 -105 96 -7 -4 -8 -2 -4 5 5 7 -12 30 -42 59 l-50 48 -218 -214z
m1357 131 c13 -16 12 -17 -3 -4 -17 13 -22 21 -14 21 2 0 10 -8 17 -17z m120
0 c13 -16 12 -17 -3 -4 -17 13 -22 21 -14 21 2 0 10 -8 17 -17z m120 0 c13
-16 12 -17 -3 -4 -17 13 -22 21 -14 21 2 0 10 -8 17 -17z m1050 -30 c13 -16
12 -17 -3 -4 -10 7 -18 15 -18 17 0 8 8 3 21 -13z m-1871 -17 c0 -2 -8 -10
-17 -17 -16 -13 -17 -12 -4 4 13 16 21 21 21 13z m1171 -53 c13 -16 12 -17 -3
-4 -17 13 -22 21 -14 21 2 0 10 -8 17 -17z m-1021 -18 c0 7 24 8 65 5 36 -3
72 -2 80 3 10 5 15 3 15 -5 0 -10 2 -10 9 1 6 9 11 10 15 2 5 -8 13 -8 27 -1
14 8 19 7 20 -2 0 -7 2 -8 5 -3 5 11 533 13 551 2 7 -4 14 -3 18 3 4 7 12 7
25 0 13 -7 21 -7 25 0 4 6 13 7 21 2 9 -5 34 -6 57 -2 85 12 77 88 75 -721 0
-558 -4 -724 -13 -743 -7 -14 -10 -28 -7 -31 4 -4 0 -5 -8 -3 -8 1 -14 -3 -12
-10 1 -6 -1 -11 -5 -11 -22 4 -44 -2 -39 -10 3 -4 -16 -4 -42 1 -26 6 -52 10
-59 11 -7 0 -10 3 -8 7 2 4 -6 18 -18 31 -12 13 -21 25 -19 26 1 2 2 9 2 16 0
9 -23 12 -87 12 -84 0 -88 -1 -91 -23 -2 -13 -19 -38 -37 -56 -28 -29 -40 -34
-73 -32 -41 2 -92 28 -92 47 0 6 -4 8 -9 5 -5 -3 -9 0 -8 7 2 53 2 53 -90 52
-51 0 -88 -4 -88 -10 -1 -17 -27 -59 -42 -68 -7 -5 -11 -11 -9 -15 2 -4 -17
-7 -44 -7 -26 0 -46 -4 -43 -8 3 -5 -13 4 -35 20 -22 15 -38 31 -35 36 2 4 0
7 -4 7 -5 0 -10 8 -11 18 -3 32 -7 47 -16 61 -6 9 -5 12 1 8 14 -8 12 171 -1
192 -6 10 -5 12 2 7 16 -10 16 36 0 53 -10 11 -10 13 0 7 8 -5 12 -1 12 11 0
11 -6 25 -12 32 -11 11 -10 12 0 7 17 -10 16 232 -2 253 -8 12 -8 13 2 7 9 -5
12 9 12 61 0 41 -5 74 -12 82 -11 11 -10 12 0 7 10 -6 12 3 10 41 -2 26 -8 54
-12 62 -6 10 -5 12 2 7 17 -10 16 126 0 143 -10 11 -10 13 0 7 8 -5 12 2 12
26 0 19 -6 40 -12 47 -10 11 -10 13 0 7 9 -6 12 27 12 149 0 109 -3 154 -11
150 -6 -4 -5 2 2 14 10 14 15 17 21 8 4 -7 8 -7 8 -2z m1530 12 c0 -2 -10 -12
-22 -23 l-23 -19 19 23 c18 21 26 27 26 19z m261 -34 c13 -16 12 -17 -3 -4
-17 13 -22 21 -14 21 2 0 10 -8 17 -17z m-2711 -16 c0 -2 -10 -12 -22 -23
l-23 -19 19 23 c18 21 26 27 26 19z m475 -37 c10 -11 16 -20 13 -20 -3 0 -13
9 -23 20 -10 11 -16 20 -13 20 3 0 13 -9 23 -20z m-350 -131 c-1 -52 3 -76 10
-71 7 4 7 1 -1 -9 -6 -9 -10 -107 -10 -276 1 -145 -3 -263 -7 -263 -5 0 -5 -5
-1 -12 4 -7 3 -8 -5 -4 -14 9 -88 -33 -118 -68 -32 -36 -55 -85 -47 -98 4 -6
3 -8 -3 -5 -31 19 -27 -159 5 -221 14 -26 27 -40 34 -36 6 4 8 3 5 -3 -8 -13
18 -42 67 -76 30 -20 43 -24 53 -15 10 8 12 7 7 -5 -4 -12 0 -15 20 -13 14 2
23 -1 20 -5 -3 -5 20 -9 51 -9 39 0 54 3 49 11 -5 8 -2 9 11 2 18 -10 65 4 65
20 0 5 4 6 8 3 12 -7 54 23 47 35 -3 5 0 6 7 4 18 -7 87 85 90 119 1 14 6 26
11 26 5 0 3 8 -4 17 -11 13 -11 15 -1 9 10 -6 13 6 11 58 -1 36 -6 66 -11 66
-4 0 -7 3 -7 8 3 20 -2 32 -13 26 -7 -4 -8 -3 -4 4 19 31 -105 155 -136 136
-6 -4 -8 -3 -4 4 3 6 -2 13 -11 16 -16 5 -18 17 -16 91 2 66 0 84 -10 79 -9
-6 -9 -5 0 7 16 20 15 149 -1 168 -6 8 -6 12 -1 9 7 -4 11 10 12 38 1 32 -2
42 -10 38 -8 -5 -8 -3 1 7 6 7 12 17 12 22 0 4 -6 5 -12 1 -10 -6 -9 -3 0 9
16 19 14 105 -2 126 -8 11 -8 13 2 7 6 -4 12 -3 12 1 0 5 -6 15 -12 22 -10 11
-10 13 0 7 8 -5 12 1 12 21 0 16 -6 35 -12 42 -11 11 -9 12 8 3 12 -6 25 -8
29 -4 3 4 5 2 3 -3 -4 -13 91 -111 104 -108 4 2 7 -1 5 -5 -1 -5 64 -74 144
-153 l146 -146 -1 -76 c-1 -45 2 -73 8 -70 5 4 6 1 1 -8 -12 -19 -13 -89 -2
-82 6 4 7 1 2 -8 -12 -19 -13 -139 -1 -132 5 4 6 0 0 -8 -12 -19 -12 -169 0
-162 5 4 6 0 0 -8 -12 -19 -12 -169 0 -162 5 4 6 0 0 -8 -12 -19 -12 -169 0
-162 5 4 6 0 0 -8 -12 -19 -12 -169 0 -162 5 4 6 1 0 -8 -12 -19 -12 -289 0
-282 5 4 6 0 0 -8 -12 -20 -14 -38 -3 -45 5 -3 6 -11 2 -17 -11 -18 -10 -167
1 -160 5 4 6 1 0 -8 -5 -8 -9 -27 -9 -44 l0 -30 -514 -3 c-380 -2 -518 1 -525
9 -8 9 -8 10 0 6 13 -7 13 121 0 142 -6 10 -5 12 2 7 16 -10 15 7 0 23 -10 11
-10 13 0 7 16 -9 16 6 0 23 -10 11 -10 13 0 7 6 -4 12 -3 12 1 0 5 -6 15 -12
22 -10 11 -10 13 0 7 6 -4 12 -3 12 1 0 5 -6 15 -12 22 -10 11 -10 13 0 7 6
-4 12 -3 12 1 0 5 -6 15 -12 22 -11 11 -10 13 0 7 14 -8 12 19 -2 43 -6 10 -5
12 2 7 16 -10 15 7 0 23 -10 11 -10 13 0 7 16 -9 16 6 0 23 -10 11 -10 13 0 7
6 -4 12 -3 12 1 0 5 -6 15 -12 22 -10 11 -10 13 0 7 6 -4 12 -3 12 1 0 5 -6
15 -12 22 -7 8 -8 11 -2 8 13 -7 13 101 0 122 -6 10 -5 12 2 7 16 -10 15 7 0
23 -10 11 -10 13 0 7 6 -4 12 -3 12 1 0 5 -6 15 -12 22 -10 11 -10 13 0 7 8
-5 12 1 12 19 0 17 -4 24 -12 19 -7 -5 -8 -3 -2 7 12 20 12 91 0 108 -8 11 -8
13 2 7 16 -9 16 6 0 23 -10 11 -10 13 0 7 16 -9 16 6 0 23 -10 11 -10 13 0 7
6 -4 12 -3 12 1 0 5 -6 15 -12 22 -10 11 -10 13 0 7 6 -4 12 -3 12 1 0 5 -6
15 -12 22 -10 11 -10 13 0 7 6 -4 12 -3 12 1 0 5 -6 15 -12 22 -9 10 -9 12 -1
7 14 -8 13 100 -2 123 -5 10 -4 12 3 7 16 -10 15 7 0 23 -10 11 -10 13 0 7 6
-4 12 -3 12 1 0 5 -6 15 -12 22 -10 11 -10 13 0 7 6 -4 12 -3 12 1 0 5 -6 15
-12 22 -10 11 -10 13 0 7 6 -4 12 -3 12 1 0 5 -6 15 -12 22 -10 11 -10 13 0 7
6 -4 12 -3 12 1 0 5 -6 15 -12 22 -10 11 -10 13 0 7 6 -4 12 -3 12 1 0 5 -6
15 -12 22 -10 11 -10 13 0 7 6 -4 12 -3 12 1 0 5 -6 15 -12 22 -10 11 -10 13
0 7 6 -4 12 -3 12 1 0 5 -6 15 -12 22 -10 11 -10 13 0 7 6 -4 12 -3 12 1 0 5
-6 15 -12 22 -10 11 -10 13 0 7 6 -4 12 -3 12 1 0 5 -6 15 -12 22 -10 11 -10
13 0 7 6 -4 12 -3 12 1 0 5 -6 15 -12 22 -10 11 -10 12 -1 7 9 -5 12 6 10 41
-2 27 -7 55 -12 62 -5 9 -4 12 2 8 7 -5 12 13 13 51 2 78 2 81 11 79 4 -1 26
18 50 43 24 25 47 44 53 42 5 -2 3 4 -4 13 -11 13 -10 14 5 8 14 -5 17 -3 12
10 -4 12 -2 14 10 10 12 -5 15 -2 10 10 -4 12 -2 14 10 10 13 -5 15 -2 10 11
-4 10 -3 15 3 11 13 -8 123 102 115 115 -4 6 1 7 11 3 14 -5 16 -3 11 11 -4
11 -3 15 4 11 13 -9 50 25 42 38 -3 5 -1 7 4 4 13 -8 36 17 25 27 -4 4 0 6 8
4 8 -1 14 2 13 8 -1 6 4 11 11 11 8 0 12 -22 11 -78z m2401 36 c-3 -22 0 -33
7 -28 6 4 7 1 1 -8 -11 -18 -13 -99 -2 -105 5 -3 5 -11 1 -17 -12 -19 -10
-256 2 -249 6 4 6 0 0 -9 -6 -8 -10 -67 -10 -136 l1 -122 -25 -6 c-80 -20
-165 -129 -177 -227 -7 -53 4 -130 17 -123 5 3 6 -1 3 -9 -7 -18 24 -79 36
-71 6 3 7 0 4 -8 -6 -17 21 -41 35 -32 7 4 8 -1 4 -11 -4 -12 -3 -15 5 -10 7
4 12 3 12 -1 0 -11 60 -47 60 -36 0 4 4 2 9 -6 13 -20 168 -30 156 -10 -8 12
-6 12 8 0 13 -11 17 -11 17 -1 0 8 3 11 6 7 10 -10 72 20 105 50 34 31 96 118
77 107 -7 -4 -5 1 4 12 14 16 15 23 5 34 -9 10 -9 11 1 6 8 -5 12 2 13 21 3
52 -4 121 -11 131 -2 1 -3 5 -4 10 -7 23 -31 62 -39 62 -6 0 -7 3 -4 6 11 11
-64 76 -80 70 -8 -3 -11 -2 -8 4 7 11 -29 32 -39 23 -3 -3 -6 -1 -6 6 0 7 -3
10 -7 8 -5 -3 -7 101 -5 230 2 189 0 233 -10 227 -10 -6 -10 -4 0 8 7 9 12 22
11 30 -1 7 -1 56 0 109 1 78 4 96 16 96 8 0 13 -3 10 -5 -9 -9 27 -42 38 -35
5 3 7 2 4 -3 -6 -11 83 -101 95 -97 4 2 7 -1 6 -5 -5 -14 200 -214 211 -207 6
3 8 0 5 -9 -3 -9 4 -21 19 -31 l24 -16 -1 -837 -1 -837 -60 0 c-33 0 -66 -4
-74 -9 -9 -6 -12 -5 -8 1 8 13 -52 12 -72 -1 -9 -6 -12 -5 -8 1 4 6 -4 11 -18
11 -16 -1 -22 -5 -18 -12 4 -6 -1 -5 -10 3 -14 11 -20 11 -34 0 -9 -8 -14 -9
-10 -3 8 13 -511 13 -532 0 -9 -6 -12 -5 -8 0 3 6 -28 10 -81 10 l-87 -1 -2
90 c-3 120 -5 987 -3 1000 2 6 2 14 1 18 -2 10 -3 467 -2 535 1 26 5 41 11 37
6 -3 10 1 10 10 0 9 5 13 10 10 6 -3 10 1 10 10 0 9 5 13 10 10 6 -3 10 2 10
11 0 10 3 15 6 11 10 -10 155 143 148 155 -5 7 -2 8 5 3 13 -7 108 91 104 107
-2 4 3 7 10 6 6 -2 11 3 10 10 -2 6 3 11 10 10 6 -2 11 3 10 10 -2 6 3 11 10
10 6 -2 11 2 10 9 -2 7 4 10 13 6 8 -3 14 -2 13 3 -3 17 1 25 10 19 6 -3 8
-21 7 -40z m-1985 18 c13 -16 12 -17 -3 -4 -17 13 -22 21 -14 21 2 0 10 -8 17
-17z m2469 -67 c0 -2 -8 -10 -17 -17 -16 -13 -17 -12 -4 4 13 16 21 21 21 13z
m-989 -63 c13 -16 12 -17 -3 -4 -10 7 -18 15 -18 17 0 8 8 3 21 -13z m540 -20
c13 -16 12 -17 -3 -4 -10 7 -18 15 -18 17 0 8 8 3 21 -13z m-2000 -20 c13 -16
12 -17 -3 -4 -17 13 -22 21 -14 21 2 0 10 -8 17 -17z m1609 3 c0 -2 -8 -10
-17 -17 -16 -13 -17 -12 -4 4 13 16 21 21 21 13z m891 -13 c13 -16 12 -17 -3
-4 -10 7 -18 15 -18 17 0 8 8 3 21 -13z m-2520 -10 c13 -16 12 -17 -3 -4 -10
7 -18 15 -18 17 0 8 8 3 21 -13z m334 -3 c10 -11 16 -20 13 -20 -3 0 -13 9
-23 20 -10 11 -16 20 -13 20 3 0 13 -9 23 -20z m-25 -15 c13 -14 21 -25 18
-25 -2 0 -15 11 -28 25 -13 14 -21 25 -18 25 2 0 15 -11 28 -25z m-1180 1 c0
-2 -8 -10 -17 -17 -16 -13 -17 -12 -4 4 13 16 21 21 21 13z m1160 -21 c13 -14
21 -25 18 -25 -2 0 -15 11 -28 25 -13 14 -21 25 -18 25 2 0 15 -11 28 -25z
m-20 -20 c13 -14 21 -25 18 -25 -2 0 -15 11 -28 25 -13 14 -21 25 -18 25 2 0
15 -11 28 -25z m-600 -9 c0 -2 -8 -10 -17 -17 -16 -13 -17 -12 -4 4 13 16 21
21 21 13z m60 -20 c0 -2 -8 -10 -17 -17 -16 -13 -17 -12 -4 4 13 16 21 21 21
13z m2840 0 c0 -2 -8 -10 -17 -17 -16 -13 -17 -12 -4 4 13 16 21 21 21 13z
m-1145 -25 c3 -5 2 -12 -3 -15 -5 -3 -9 1 -9 9 0 17 3 19 12 6z m-1715 -15 c0
-2 -8 -10 -17 -17 -16 -13 -17 -12 -4 4 13 16 21 21 21 13z m2891 -13 c13 -16
12 -17 -3 -4 -10 7 -18 15 -18 17 0 8 8 3 21 -13z m-1176 -52 c3 -5 2 -12 -3
-15 -5 -3 -9 1 -9 9 0 17 3 19 12 6z m605 -5 c0 -2 -8 -10 -17 -17 -16 -13
-17 -12 -4 4 13 16 21 21 21 13z m-605 -55 c3 -5 2 -12 -3 -15 -5 -3 -9 1 -9
9 0 17 3 19 12 6z m725 5 c0 -2 -8 -10 -17 -17 -16 -13 -17 -12 -4 4 13 16 21
21 21 13z m-725 -105 c3 -5 2 -12 -3 -15 -5 -3 -9 1 -9 9 0 17 3 19 12 6z
m605 -5 c0 -2 -8 -10 -17 -17 -16 -13 -17 -12 -4 4 13 16 21 21 21 13z m-605
-55 c3 -5 2 -12 -3 -15 -5 -3 -9 1 -9 9 0 17 3 19 12 6z m-1094 -78 c13 -16
12 -17 -3 -4 -17 13 -22 21 -14 21 2 0 10 -8 17 -17z m-20 -20 c13 -16 12 -17
-3 -4 -17 13 -22 21 -14 21 2 0 10 -8 17 -17z m-630 -120 c13 -16 12 -17 -3
-4 -10 7 -18 15 -18 17 0 8 8 3 21 -13z m220 0 c13 -16 12 -17 -3 -4 -17 13
-22 21 -14 21 2 0 10 -8 17 -17z m-240 -20 c13 -16 12 -17 -3 -4 -17 13 -22
21 -14 21 2 0 10 -8 17 -17z m-20 -20 c13 -16 12 -17 -3 -4 -17 13 -22 21 -14
21 2 0 10 -8 17 -17z m-20 -20 c13 -16 12 -17 -3 -4 -17 13 -22 21 -14 21 2 0
10 -8 17 -17z m-20 -20 c13 -16 12 -17 -3 -4 -17 13 -22 21 -14 21 2 0 10 -8
17 -17z m-20 -60 c13 -16 12 -17 -3 -4 -17 13 -22 21 -14 21 2 0 10 -8 17 -17z
m-26 -13 c10 -11 16 -20 13 -20 -3 0 -13 9 -23 20 -10 11 -16 20 -13 20 3 0
13 -9 23 -20z m-444 -7 c13 -16 12 -17 -3 -4 -10 7 -18 15 -18 17 0 8 8 3 21
-13z m1230 -20 c13 -16 12 -17 -3 -4 -10 7 -18 15 -18 17 0 8 8 3 21 -13z
m-20 -20 c13 -16 12 -17 -3 -4 -17 13 -22 21 -14 21 2 0 10 -8 17 -17z m2019
13 c0 -2 -8 -10 -17 -17 -16 -13 -17 -12 -4 4 13 16 21 21 21 13z m-2039 -33
c13 -16 12 -17 -3 -4 -10 7 -18 15 -18 17 0 8 8 3 21 -13z m-1280 -20 c13 -16
12 -17 -3 -4 -17 13 -22 21 -14 21 2 0 10 -8 17 -17z m3020 0 c13 -16 12 -17
-3 -4 -10 7 -18 15 -18 17 0 8 8 3 21 -13z m-2590 -10 c13 -16 12 -17 -3 -4
-17 13 -22 21 -14 21 2 0 10 -8 17 -17z m100 0 c13 -16 12 -17 -3 -4 -17 13
-22 21 -14 21 2 0 10 -8 17 -17z m2470 -10 c13 -16 12 -17 -3 -4 -10 7 -18 15
-18 17 0 8 8 3 21 -13z m-2490 -10 c13 -16 12 -17 -3 -4 -17 13 -22 21 -14 21
2 0 10 -8 17 -17z m2450 -50 c13 -16 12 -17 -3 -4 -17 13 -22 21 -14 21 2 0
10 -8 17 -17z m-20 -20 c13 -16 12 -17 -3 -4 -17 13 -22 21 -14 21 2 0 10 -8
17 -17z m-480 -180 c13 -16 12 -17 -3 -4 -17 13 -22 21 -14 21 2 0 10 -8 17
-17z m1260 0 c13 -16 12 -17 -3 -4 -10 7 -18 15 -18 17 0 8 8 3 21 -13z
m-2380 -10 c13 -16 12 -17 -3 -4 -17 13 -22 21 -14 21 2 0 10 -8 17 -17z m619
3 c0 -2 -8 -10 -17 -17 -16 -13 -17 -12 -4 4 13 16 21 21 21 13z m481 -13 c13
-16 12 -17 -3 -4 -17 13 -22 21 -14 21 2 0 10 -8 17 -17z m-500 -100 c13 -16
12 -17 -3 -4 -10 7 -18 15 -18 17 0 8 8 3 21 -13z m-277 -14 c-4 -7 19 -27 60
-53 18 -12 26 -13 20 -5 -6 12 -5 12 8 1 38 -31 167 -32 204 -1 8 6 14 8 14 3
0 -5 4 -4 8 1 4 6 16 15 27 22 11 6 19 15 18 20 -1 5 9 10 23 11 13 1 24 -2
24 -7 0 -14 107 -64 119 -56 6 3 11 0 11 -7 0 -9 3 -9 10 2 5 8 10 10 10 4 0
-14 32 -13 42 1 5 6 8 5 8 -4 0 -11 3 -11 17 0 14 12 16 12 8 0 -6 -11 -5 -12
6 -5 13 8 49 17 49 11 0 -1 -115 -117 -256 -257 -140 -140 -254 -250 -252
-245 5 17 -390 407 -404 399 -7 -4 -8 -3 -4 5 4 6 -9 28 -33 52 -46 45 -50 53
-20 44 15 -5 19 -4 14 5 -5 7 2 6 16 -3 13 -8 33 -13 44 -12 11 2 35 4 53 6
17 2 32 7 32 12 0 4 4 5 10 2 16 -10 84 40 75 55 -2 3 7 5 20 5 13 0 21 -3 19
-6z m206 7 c0 -2 -8 -10 -17 -17 -16 -13 -17 -12 -4 4 13 16 21 21 21 13z
m620 -50 c0 -2 -8 -10 -17 -17 -16 -13 -17 -12 -4 4 13 16 21 21 21 13z
m-2440 -50 c0 -2 -8 -10 -17 -17 -16 -13 -17 -12 -4 4 13 16 21 21 21 13z
m1320 -40 c0 -2 -8 -10 -17 -17 -16 -13 -17 -12 -4 4 13 16 21 21 21 13z m-40
-50 c0 -2 -8 -10 -17 -17 -16 -13 -17 -12 -4 4 13 16 21 21 21 13z m2391 -113
c13 -16 12 -17 -3 -4 -10 7 -18 15 -18 17 0 8 8 3 21 -13z m-1561 4 c0 -2 -10
-12 -22 -23 l-23 -19 19 23 c18 21 26 27 26 19z m-959 -24 c13 -16 12 -17 -3
-4 -17 13 -22 21 -14 21 2 0 10 -8 17 -17z m2454 -73 c10 -11 16 -20 13 -20
-3 0 -13 9 -23 20 -10 11 -16 20 -13 20 3 0 13 -9 23 -20z m-34 -7 c13 -16 12
-17 -3 -4 -17 13 -22 21 -14 21 2 0 10 -8 17 -17z m100 0 c13 -16 12 -17 -3
-4 -10 7 -18 15 -18 17 0 8 8 3 21 -13z m-1491 -7 c0 -2 -8 -10 -17 -17 -16
-13 -17 -12 -4 4 13 16 21 21 21 13z m1471 -43 c13 -16 12 -17 -3 -4 -10 7
-18 15 -18 17 0 8 8 3 21 -13z m-1750 -80 c13 -16 12 -17 -3 -4 -17 13 -22 21
-14 21 2 0 10 -8 17 -17z m80 0 c13 -16 12 -17 -3 -4 -17 13 -22 21 -14 21 2
0 10 -8 17 -17z m-320 -30 c13 -16 12 -17 -3 -4 -17 13 -22 21 -14 21 2 0 10
-8 17 -17z m-1590 -50 c13 -16 12 -17 -3 -4 -10 7 -18 15 -18 17 0 8 8 3 21
-13z m-20 -20 c13 -16 12 -17 -3 -4 -10 7 -18 15 -18 17 0 8 8 3 21 -13z m-20
-20 c13 -16 12 -17 -3 -4 -10 7 -18 15 -18 17 0 8 8 3 21 -13z m120 -10 c13
-16 12 -17 -3 -4 -17 13 -22 21 -14 21 2 0 10 -8 17 -17z m-140 -10 c13 -16
12 -17 -3 -4 -10 7 -18 15 -18 17 0 8 8 3 21 -13z m120 -10 c13 -16 12 -17 -3
-4 -10 7 -18 15 -18 17 0 8 8 3 21 -13z m3249 -7 c0 -2 -8 -10 -17 -17 -16
-13 -17 -12 -4 4 13 16 21 21 21 13z m-169 -33 c13 -16 12 -17 -3 -4 -17 13
-22 21 -14 21 2 0 10 -8 17 -17z"/>
<path d="M2231 1397 c-15 -15 -14 -39 2 -60 10 -14 16 -15 36 -4 29 14 35 41
14 59 -20 16 -39 18 -52 5z m20 -34 c13 -16 12 -17 -3 -4 -10 7 -18 15 -18 17
0 8 8 3 21 -13z"/>
<path d="M2670 1402 c-18 -6 -30 -22 -30 -40 0 -7 5 -10 12 -6 7 5 8 3 3 -6
-10 -15 11 -29 35 -23 26 7 33 45 12 64 -9 9 -24 14 -32 11z"/>
<path d="M6389 1394 c-6 -8 -8 -25 -5 -39 5 -20 13 -25 37 -25 18 0 28 4 24
10 -3 6 -2 10 4 10 12 0 8 27 -7 42 -17 17 -39 18 -53 2z"/>
<path d="M3913 1365 c-26 -13 -55 -30 -63 -37 -54 -45 -98 -147 -94 -215 1
-18 2 -42 3 -54 0 -11 5 -18 10 -15 5 4 7 -2 5 -11 -7 -25 55 -116 73 -109 8
3 12 2 9 -3 -7 -12 55 -49 91 -55 16 -2 28 -5 28 -6 0 -1 8 -3 18 -5 11 -2 15
1 10 8 -4 8 -1 7 9 -1 13 -10 17 -10 21 0 4 10 6 10 6 -1 1 -11 4 -11 18 0 9
8 14 9 10 2 -9 -14 31 -6 52 11 11 8 13 8 7 -1 -5 -9 -2 -11 9 -7 9 4 14 13
11 21 -4 9 -2 11 7 6 21 -13 38 -12 44 3 3 8 9 11 14 8 11 -6 7 25 -5 45 -6 9
-5 12 1 8 13 -8 11 52 -2 73 -5 9 -4 11 3 6 14 -8 12 20 -2 43 -6 9 -5 12 2 7
6 -4 12 3 14 16 2 15 11 24 26 26 12 2 22 6 22 10 0 9 -187 9 -196 -1 -6 -6
34 -12 58 -8 4 0 4 -7 1 -16 -4 -9 -2 -14 3 -11 14 9 10 -180 -4 -194 -26 -26
-120 -30 -169 -8 -39 18 -96 74 -86 84 4 3 1 6 -6 6 -7 0 -9 5 -6 10 3 6 2 10
-2 10 -12 0 -17 44 -16 135 2 97 5 115 15 109 4 -3 8 1 8 8 0 17 55 79 64 71
3 -3 6 -1 6 5 0 7 6 11 13 10 6 -2 11 2 10 8 -1 6 10 9 28 6 16 -2 37 2 46 9
14 12 16 12 8 0 -6 -11 -3 -13 13 -9 12 4 20 2 16 -3 -3 -5 3 -9 13 -9 10 0
27 -7 37 -15 10 -8 23 -12 28 -9 5 3 8 2 7 -3 -4 -16 13 -43 24 -36 6 3 7 1 3
-5 -4 -6 0 -24 8 -39 15 -29 15 -30 7 130 -1 10 -6 15 -12 12 -6 -4 -8 -13 -5
-20 4 -10 -3 -11 -30 -3 -19 5 -39 6 -46 2 -7 -4 -8 -3 -4 4 8 13 5 14 -81 18
-47 2 -72 -3 -110 -21z m268 -462 c13 -16 12 -17 -3 -4 -17 13 -22 21 -14 21
2 0 10 -8 17 -17z"/>
<path d="M484 1368 c-4 -7 31 -12 57 -10 9 1 10 -10 12 -218 1 -107 6 -201 11
-209 6 -10 5 -12 -2 -7 -10 6 -17 -11 -14 -35 1 -4 -4 -6 -11 -6 -36 1 -61 -4
-50 -11 14 -9 161 -8 170 1 3 4 -3 7 -14 7 -12 0 -31 9 -44 21 -13 11 -17 17
-9 13 11 -6 11 -1 -4 20 -10 16 -13 26 -8 22 8 -5 11 44 10 154 0 89 3 164 6
167 3 4 6 1 6 -6 0 -7 5 -9 12 -5 6 4 8 3 5 -4 -9 -13 2 -44 13 -37 4 3 8 -1
7 -8 -1 -34 4 -48 15 -41 6 4 8 3 5 -4 -10 -15 3 -43 16 -35 6 3 7 1 3 -5 -3
-6 12 -50 35 -99 23 -48 45 -99 50 -112 8 -20 12 -21 27 -10 14 11 15 11 5 -1
-14 -15 -17 -40 -5 -40 10 0 52 76 52 95 0 10 5 13 12 9 7 -4 8 -3 4 5 -4 6
-2 18 4 26 7 8 10 22 6 30 -3 9 -2 13 4 10 11 -7 52 84 43 98 -3 5 -1 7 4 4
12 -8 27 38 18 53 -4 6 2 7 12 3 10 -3 15 -2 10 2 -4 5 0 19 9 33 8 13 13 30
10 37 -3 9 0 12 8 9 9 -4 12 -43 12 -158 -1 -100 2 -152 9 -148 6 3 6 0 -1 -9
-5 -8 -9 -24 -8 -37 1 -25 -29 -52 -60 -52 -23 0 -16 -10 11 -14 10 -2 21 2
25 8 5 7 8 7 8 -3 0 -11 3 -11 17 0 9 8 14 9 11 3 -9 -13 54 -13 64 1 5 7 8 6
8 0 0 -6 14 -11 30 -10 17 0 30 3 30 7 0 5 -11 8 -24 8 -30 0 -46 19 -49 61
-2 19 -7 40 -11 48 -6 10 -5 12 2 7 16 -10 15 7 0 23 -10 11 -10 13 0 7 6 -4
12 -3 12 1 0 5 -6 15 -12 22 -10 11 -10 13 0 7 6 -4 12 -3 12 1 0 5 -6 15 -12
22 -11 11 -10 13 0 7 14 -8 12 19 -2 43 -6 10 -5 12 2 7 14 -8 12 20 -2 43 -6
9 -5 12 2 7 12 -7 11 42 -2 63 -6 10 -5 12 2 7 16 -10 15 7 0 23 -10 10 -10
12 -1 7 9 -5 11 3 9 29 -1 20 2 39 7 42 6 4 7 0 2 -8 -6 -11 -5 -12 6 -1 7 6
24 12 37 12 13 0 21 4 18 8 -2 4 -35 8 -73 7 l-68 0 -22 -45 c-32 -64 -57
-124 -55 -132 1 -5 -2 -8 -8 -8 -5 0 -10 -4 -10 -10 0 -14 -82 -190 -89 -190
-3 0 -14 20 -24 45 -11 26 -23 42 -30 38 -6 -3 -7 -1 -3 5 7 12 -72 194 -86
200 -5 2 -6 7 -4 11 3 4 -5 25 -17 46 l-22 40 -68 0 c-38 1 -71 -3 -73 -7z"/>
<path d="M2462 1323 c3 -12 -27 -66 -51 -87 -11 -10 -18 -22 -16 -26 3 -4 -2
-7 -10 -6 -7 0 -14 -3 -14 -9 -1 -12 18 -14 39 -4 13 6 15 -12 12 -138 -2 -91
1 -143 7 -139 5 4 7 -3 3 -16 -4 -17 -2 -20 11 -15 10 4 16 2 14 -6 -1 -8 11
-11 38 -10 41 1 75 29 75 62 -1 13 -4 12 -18 -5 -16 -19 -45 -24 -60 -10 -8 8
-20 106 -13 106 3 0 5 39 3 86 -2 58 0 84 7 79 6 -3 11 0 11 7 0 10 2 10 9 -1
6 -9 10 -10 16 -2 5 9 11 9 22 -1 13 -10 15 -9 12 7 -3 15 -12 20 -39 20 l-35
0 -1 55 c-1 32 -6 56 -13 58 -6 2 -11 0 -9 -5z"/>
<path d="M1251 1209 c-48 -21 -68 -53 -49 -77 11 -13 11 -15 -2 -7 -13 8 -13
7 -1 -8 16 -20 36 -23 25 -4 -5 8 -2 8 9 -2 18 -14 18 -16 21 42 1 24 68 66
74 47 3 -7 10 -6 20 2 11 9 14 9 9 1 -5 -7 -2 -23 6 -35 29 -49 18 -69 -58
-99 -41 -17 -82 -42 -99 -60 -24 -27 -27 -38 -23 -73 3 -24 14 -48 26 -57 21
-17 95 -24 85 -8 -3 5 1 6 9 3 8 -3 26 6 40 20 l26 26 7 -23 c14 -44 49 -49
93 -11 37 31 41 51 7 29 -23 -15 -25 -15 -33 2 -5 10 -9 47 -8 83 1 36 -3 71
-9 79 -8 11 -8 13 2 7 19 -11 7 82 -14 105 -15 17 -47 28 -99 34 -13 1 -42 -6
-64 -16z m124 -199 c-1 -61 -4 -72 -24 -86 -24 -17 -95 -29 -86 -14 3 5 0 10
-6 12 -7 2 -13 13 -13 24 -1 11 -6 26 -11 33 -5 9 -4 12 2 8 5 -4 16 5 23 18
7 14 21 27 32 31 10 3 18 9 18 13 0 4 7 8 15 9 8 1 22 3 30 4 8 1 15 5 15 10
0 4 1 8 3 8 2 0 2 -32 2 -70z"/>
<path d="M1990 1218 c0 -5 -4 -7 -9 -3 -5 3 -12 1 -16 -5 -4 -6 -11 -8 -16 -5
-5 4 -9 1 -9 -5 0 -6 -4 -9 -9 -6 -4 3 -17 -1 -27 -9 -18 -14 -18 -14 3 -10
13 2 25 -1 28 -6 4 -5 9 -7 13 -5 8 5 5 -226 -3 -261 -3 -13 -9 -22 -13 -22
-16 3 -32 -1 -32 -8 0 -5 14 -8 30 -8 17 0 30 5 30 10 0 7 3 7 8 0 4 -5 16
-10 27 -10 11 0 23 5 27 10 5 6 8 6 8 -2 0 -6 8 -10 18 -8 9 2 22 4 27 5 6 1
-1 5 -14 9 -13 3 -27 13 -31 21 -4 8 -12 26 -19 39 -8 14 -8 21 -2 16 14 -8
14 1 0 27 -6 12 -7 18 -1 14 11 -7 8 56 -4 75 -4 8 -3 9 4 5 7 -4 12 -1 12 9
0 9 -5 13 -10 10 -6 -3 0 10 11 30 27 45 38 50 75 31 24 -13 31 -14 43 -2 15
16 7 71 -9 61 -6 -3 -10 -2 -10 4 0 19 -45 1 -72 -29 -15 -16 -30 -30 -33 -30
-3 0 -4 15 -2 33 3 23 0 34 -10 34 -7 0 -13 -4 -13 -9z"/>
<path d="M2262 1223 c-6 -3 -10 -9 -7 -14 4 -5 -1 -6 -9 -3 -8 3 -28 -2 -45
-11 -35 -18 -41 -30 -11 -22 13 3 23 -1 29 -11 10 -20 12 -244 2 -260 -3 -6
-17 -15 -31 -20 -23 -9 -23 -9 -2 -14 12 -4 22 -1 22 4 0 6 6 5 15 -2 12 -10
15 -10 15 0 0 10 3 10 15 0 12 -10 15 -10 15 1 0 9 3 10 8 4 8 -11 47 -13 58
-2 6 6 -17 11 -38 8 -4 0 -5 8 -3 19 2 11 1 20 -3 20 -4 0 -6 37 -4 82 1 46 3
90 2 98 0 8 0 38 1 67 0 52 -6 64 -29 56z"/>
<path d="M2695 1221 c-3 -6 -11 -9 -16 -6 -5 4 -9 1 -9 -5 0 -6 -4 -9 -9 -5
-5 3 -12 1 -16 -5 -4 -6 -10 -8 -14 -5 -5 2 -17 -2 -27 -10 -18 -13 -17 -14
12 -11 l31 3 2 -128 c2 -130 -6 -169 -34 -169 -8 0 -15 -3 -15 -8 0 -4 36 -7
80 -7 44 0 80 3 80 8 0 6 -14 10 -31 9 -3 0 -11 8 -18 20 -7 11 -9 18 -4 15 8
-5 7 302 -1 310 -2 3 -7 -1 -11 -6z"/>
<path d="M3263 1215 c-48 -20 -76 -82 -51 -113 11 -13 11 -14 -1 -8 -9 6 -8 0
4 -17 16 -24 42 -42 58 -39 4 1 7 -2 7 -8 0 -5 6 -10 14 -10 7 0 29 -11 49
-24 19 -13 37 -22 39 -20 3 2 4 -13 3 -33 -2 -37 -25 -63 -55 -63 -33 0 -79
22 -85 41 -4 10 -11 19 -16 19 -5 0 -8 3 -8 8 3 17 -2 32 -9 32 -5 0 -8 -27
-8 -60 1 -57 7 -72 21 -50 4 6 10 8 14 6 29 -18 117 -22 136 -6 6 5 16 6 20 2
5 -4 5 1 2 10 -4 11 -2 15 7 12 16 -6 41 40 38 72 -3 42 -29 68 -104 107 -40
20 -79 47 -86 58 -8 12 -9 18 -3 15 7 -5 8 -1 5 9 -9 23 25 50 63 50 17 0 29
-3 27 -7 -2 -3 5 -9 16 -13 11 -3 20 -13 20 -21 0 -8 4 -12 10 -9 5 3 7 0 5
-7 -3 -8 0 -22 7 -31 12 -15 14 -9 14 47 1 61 0 65 -17 55 -13 -6 -31 -7 -54
0 -26 7 -33 7 -28 -2 5 -9 3 -9 -8 0 -11 9 -21 8 -46 -2z"/>
<path d="M4763 1215 c-11 -8 -23 -11 -27 -8 -3 3 -6 1 -6 -6 0 -7 -4 -10 -9
-7 -4 3 -17 -2 -27 -10 -18 -15 -18 -15 4 -11 12 3 22 1 22 -5 0 -5 6 -6 13
-2 6 4 9 4 5 -1 -4 -4 -2 -15 5 -23 6 -9 8 -13 2 -10 -6 4 -10 -39 -9 -123 0
-70 -3 -126 -7 -124 -4 3 -17 1 -30 -3 -19 -7 -20 -10 -6 -15 10 -4 17 -1 17
6 0 7 3 8 8 2 4 -5 23 -10 42 -10 19 0 38 5 42 10 5 7 8 6 8 0 0 -6 9 -11 20
-11 11 0 20 3 20 7 0 6 -38 22 -51 21 -3 -1 -4 15 -2 34 3 27 0 34 -9 28 -10
-5 -11 -4 0 7 6 7 12 21 12 32 0 12 -4 16 -12 11 -10 -6 -10 -4 -2 7 6 8 11
38 12 67 0 49 20 93 41 90 3 0 8 1 11 2 24 9 58 7 74 -5 17 -13 20 -29 21
-141 l2 -126 -31 -14 c-17 -7 -29 -14 -26 -14 3 -1 42 -2 88 -3 81 -2 105 5
57 17 -24 6 -25 10 -26 79 -1 39 -2 90 -3 112 0 22 2 47 6 56 9 21 75 52 90
43 7 -5 8 -2 3 7 -5 8 1 6 13 -4 11 -11 25 -16 30 -13 6 4 8 -3 4 -16 -4 -16
-2 -19 8 -13 9 6 11 4 5 -5 -4 -7 -8 -62 -8 -123 l0 -109 -30 -13 c-22 -9 -25
-13 -13 -18 9 -4 16 -2 16 2 0 5 16 5 35 1 19 -4 35 -4 35 0 0 4 16 4 35 0 20
-4 35 -4 35 1 0 8 -14 13 -32 10 -14 -2 -21 48 -20 147 0 75 -3 100 -11 96 -9
-5 -9 -4 0 6 6 7 9 20 6 29 -9 24 -45 61 -54 55 -5 -3 -9 -1 -9 4 0 12 -54 6
-81 -9 -33 -17 -58 -42 -53 -51 3 -4 -2 -5 -10 -2 -9 3 -13 10 -10 15 3 5 0 9
-6 9 -6 0 -9 4 -6 8 3 5 -7 15 -22 23 -15 7 -31 15 -36 18 -5 2 -6 -2 -1 -10
6 -11 5 -11 -5 -2 -18 16 -64 -2 -95 -39 -24 -29 -29 -26 -26 19 3 28 -11 35
-36 18z"/>
<path d="M5463 1209 c-20 -10 -41 -26 -46 -34 -13 -25 -25 -17 -22 15 2 22 -2
30 -14 30 -20 0 -101 -37 -101 -46 0 -3 6 -4 13 -1 33 12 40 -10 42 -125 1
-105 -7 -169 -23 -167 -19 3 -35 -2 -28 -8 11 -11 75 -10 68 2 -3 5 2 4 11 -4
14 -11 17 -11 17 0 0 9 3 10 8 4 9 -12 62 -15 62 -4 0 8 -21 13 -41 11 -3 -1
-6 4 -7 11 -2 22 -8 42 -16 56 -6 9 -5 12 1 8 6 -4 9 29 8 88 -1 88 0 94 22
106 13 7 23 16 23 20 0 4 11 6 25 4 14 -1 25 2 25 7 0 5 11 -2 24 -14 23 -22
24 -28 22 -148 -1 -119 -2 -125 -23 -135 -13 -5 -23 -12 -23 -15 0 -3 38 -5
85 -5 47 0 85 1 85 3 0 1 -11 7 -24 12 -27 10 -42 57 -34 110 4 25 2 30 -11
25 -13 -4 -13 -2 1 8 10 8 16 16 14 18 -2 2 -5 29 -7 59 -2 44 -21 110 -32
110 -1 0 -17 4 -34 9 -25 7 -40 5 -70 -10z"/>
<path d="M5776 1219 c-41 -11 -76 -48 -76 -80 0 -15 5 -31 12 -35 7 -5 8 -2 3
7 -6 11 -5 11 5 2 19 -17 40 -4 40 26 0 29 6 39 34 61 12 9 17 10 12 3 -5 -10
-1 -11 19 -3 19 7 24 7 19 -2 -5 -7 -2 -9 8 -6 8 4 15 1 16 -5 1 -7 5 -33 10
-59 7 -35 6 -45 -4 -41 -19 7 -161 -62 -173 -85 -18 -33 -19 -65 -5 -94 21
-41 44 -48 120 -39 6 0 22 10 34 21 l24 21 14 -27 c11 -22 19 -25 42 -20 34 6
70 35 70 55 0 10 -11 5 -32 -15 -18 -16 -28 -23 -21 -15 10 11 9 17 -5 28 -9
8 -12 12 -6 9 6 -3 10 10 10 35 -1 21 -5 39 -11 39 -7 0 -7 3 0 8 14 10 14 53
1 45 -6 -4 -5 1 3 10 11 14 11 17 0 17 -9 0 -10 3 -4 8 10 7 11 27 1 67 -2 11
-5 23 -5 27 -2 13 -57 37 -92 41 -19 2 -47 0 -63 -4z m103 -225 c-1 -40 -5
-73 -8 -72 -3 1 -19 -4 -36 -11 -25 -11 -34 -10 -55 2 -14 7 -24 19 -22 25 1
7 -2 12 -6 12 -4 0 -8 9 -8 19 0 11 5 17 10 14 6 -4 6 1 2 13 -4 10 -4 16 -1
12 9 -8 45 23 39 34 -3 4 3 5 12 1 13 -5 15 -3 9 8 -7 11 -5 11 10 -1 11 -9
16 -10 11 -2 -4 7 -1 12 9 12 9 0 13 4 10 10 -3 6 1 7 10 4 13 -5 16 -21 14
-80z m61 -18 c0 -2 -8 -10 -17 -17 -16 -13 -17 -12 -4 4 13 16 21 21 21 13z"/>
<path d="M6113 1218 c-66 -17 -93 -114 -45 -159 12 -11 22 -16 22 -12 0 4 4 3
8 -3 7 -11 102 -58 113 -56 3 0 6 -4 6 -11 0 -7 3 -24 6 -40 8 -37 -28 -62
-75 -53 -18 3 -38 7 -45 8 -7 1 -10 4 -8 8 2 4 -4 16 -13 26 -19 19 -22 27
-22 44 0 6 -4 10 -8 10 -5 0 -8 -27 -8 -60 0 -39 4 -56 11 -51 11 8 25 8 40 0
21 -12 97 -10 112 3 14 11 15 11 9 0 -7 -11 -4 -12 11 -4 26 14 38 30 51 69 7
21 7 35 1 38 -5 4 -7 10 -5 14 11 16 -25 48 -91 81 -60 30 -104 60 -89 60 3 0
1 12 -4 26 -7 16 -7 23 0 19 6 -3 10 -2 10 3 0 16 44 30 68 21 12 -5 22 -5 22
-1 0 4 5 -1 11 -11 6 -9 14 -15 18 -13 4 3 8 0 9 -7 3 -32 10 -51 20 -55 12
-4 11 16 -2 37 -6 9 -5 12 1 8 7 -4 10 7 10 29 -1 30 -4 34 -22 30 -11 -3 -36
-2 -55 3 -19 4 -49 4 -67 -1z m127 -192 c0 -2 -8 -10 -17 -17 -16 -13 -17 -12
-4 4 13 16 21 21 21 13z"/>
<path d="M6402 1211 c-23 -9 -39 -20 -35 -24 4 -5 0 -5 -9 -2 -9 4 -19 2 -23
-4 -4 -7 4 -11 19 -11 14 0 27 -3 28 -7 1 -5 2 -66 3 -137 l2 -128 -30 -13
c-22 -9 -25 -13 -13 -18 9 -4 16 -3 16 2 0 4 23 5 50 1 33 -4 50 -3 50 4 0 7
3 8 8 1 10 -14 32 -17 32 -5 0 6 -6 10 -14 10 -30 0 -36 28 -37 188 -1 89 -2
162 -3 161 -1 0 -20 -8 -44 -18z m29 -18 c13 -16 12 -17 -3 -4 -10 7 -18 15
-18 17 0 8 8 3 21 -13z"/>
<path d="M7005 1212 c4 -12 3 -12 -9 -3 -10 8 -16 9 -21 1 -3 -6 -11 -8 -16
-5 -5 4 -9 1 -9 -5 0 -6 -4 -8 -10 -5 -5 3 -10 1 -10 -5 0 -6 -4 -8 -10 -5 -5
3 -10 1 -10 -6 0 -7 8 -9 21 -6 12 3 22 0 26 -9 3 -8 10 -11 17 -7 8 5 8 3 1
-8 -12 -17 -12 -219 0 -238 5 -9 4 -12 -2 -8 -6 4 -13 0 -17 -8 -3 -8 -12 -15
-21 -15 -8 0 -15 -3 -15 -7 0 -5 38 -8 84 -8 46 0 82 3 80 7 -3 5 -14 8 -24 8
-20 0 -33 28 -34 75 -1 17 -5 36 -10 44 -6 9 -5 12 1 8 6 -4 9 36 9 107 -1 85
-4 113 -14 113 -7 0 -10 -7 -7 -15z"/>
<path d="M7104 1211 c-14 -13 -15 -13 -9 -1 4 8 -8 0 -28 -19 -20 -19 -35 -36
-33 -38 7 -7 55 24 48 32 -4 4 2 3 13 -3 14 -7 26 -7 39 0 12 7 17 7 12 0 -6
-10 17 -36 25 -28 4 4 2 -235 -2 -261 -2 -7 -5 -12 -8 -11 -20 2 -41 -3 -41
-11 0 -11 53 -8 62 4 5 6 8 6 8 -1 0 -6 7 -11 15 -11 8 0 15 5 15 11 0 6 5 4
10 -4 9 -13 10 -13 10 0 0 10 3 11 8 4 4 -7 15 -8 27 -3 13 5 15 8 5 8 -22 2
-41 16 -43 32 -2 8 -7 20 -11 28 -6 9 -5 12 1 8 12 -8 11 93 -2 113 -5 9 -4
11 3 6 14 -8 12 20 -2 43 -6 10 -5 12 2 7 16 -10 15 7 0 23 -11 10 -10 11 5 6
10 -4 17 -2 17 5 0 6 5 8 10 5 6 -3 10 -1 10 4 0 6 7 11 16 11 8 0 12 5 8 11
-4 8 -1 8 13 1 13 -7 25 -7 38 0 11 6 17 7 12 3 -4 -5 0 -16 9 -26 11 -13 15
-41 16 -120 1 -151 1 -148 -27 -155 -14 -4 -24 -9 -21 -12 8 -8 147 -8 159 0
8 5 6 8 -6 8 -10 0 -28 10 -40 21 -12 12 -17 19 -10 15 8 -4 11 2 8 21 -1 16
-8 27 -15 25 -6 -1 -9 2 -5 8 3 6 10 8 14 6 10 -6 6 127 -4 144 -5 8 -4 11 3
6 8 -5 8 2 0 26 -11 31 -41 67 -60 69 -37 6 -56 3 -72 -10 -17 -14 -18 -14
-11 -1 4 8 -7 1 -26 -17 l-33 -32 -26 31 c-30 36 -79 44 -106 19z"/>
<path d="M1500 1208 c0 -4 8 -8 18 -8 11 0 27 -10 38 -22 10 -12 15 -19 9 -16
-14 9 -9 -218 6 -254 7 -18 17 -27 25 -24 8 3 13 0 11 -7 -1 -7 14 -13 40 -15
32 -2 47 2 62 17 12 12 21 18 21 14 1 -5 6 1 13 12 7 11 19 21 27 23 11 3 12
0 4 -8 -6 -6 -9 -22 -6 -35 3 -19 9 -24 26 -21 11 3 25 5 30 5 4 1 5 8 2 17
-5 14 -4 15 8 5 10 -8 16 -9 21 -1 3 6 11 8 16 5 5 -4 9 -1 9 5 0 7 -6 10 -14
7 -27 -10 -42 25 -39 87 1 36 -2 66 -10 75 -9 12 -9 13 1 7 6 -4 12 -3 12 1 0
5 -6 15 -12 22 -9 10 -9 12 -1 7 9 -5 11 9 10 51 l-2 58 -57 0 c-32 1 -58 -3
-58 -7 0 -7 23 -12 43 -9 4 0 7 -6 7 -15 0 -9 5 -12 13 -8 9 6 9 4 2 -7 -6 -8
-10 -60 -10 -117 1 -101 1 -102 -28 -124 -36 -28 -64 -32 -91 -14 -24 15 -27
35 -30 201 l-1 99 -57 1 c-32 1 -58 -3 -58 -7z"/>
<path d="M2783 1208 c-4 -7 10 -10 33 -7 11 1 31 -45 24 -56 -3 -5 -5 -55 -4
-110 2 -136 23 -174 96 -175 30 0 47 8 77 35 l39 35 -3 -31 c-2 -17 3 -33 9
-35 15 -6 111 34 103 43 -4 3 -14 0 -24 -8 -9 -8 -14 -9 -10 -3 4 7 1 17 -6
23 -7 5 -12 25 -11 43 1 18 -3 39 -9 47 -9 12 -9 13 1 7 9 -6 12 -1 10 16 -2
12 -7 29 -12 37 -6 9 -5 12 0 8 6 -3 10 23 9 66 l0 72 -57 0 c-32 1 -58 -3
-58 -7 0 -7 21 -12 41 -10 8 1 9 -10 12 -136 l3 -112 -29 -22 c-44 -34 -81
-34 -102 -2 -14 22 -17 49 -16 158 l1 131 -56 0 c-31 0 -58 -3 -61 -7z"/>
<path d="M4294 1208 c-2 -4 0 -9 6 -13 5 -3 10 -3 10 2 0 4 5 0 11 -10 6 -9
15 -14 21 -11 6 4 8 3 5 -3 -4 -6 5 -37 20 -69 15 -33 28 -61 29 -64 4 -19 17
-39 23 -36 4 3 7 -3 8 -12 0 -9 11 -41 24 -70 l23 -53 -27 -54 c-29 -55 -32
-56 -93 -42 -24 6 -39 -2 -46 -23 -7 -21 27 -47 60 -46 29 1 86 39 75 50 -3 3
-1 6 6 6 8 0 11 7 7 15 -3 8 0 14 6 12 6 -1 16 15 23 36 6 21 15 34 19 30 5
-4 6 -3 2 4 -4 7 0 26 9 43 9 17 13 36 9 42 -4 6 -3 8 4 4 6 -3 13 6 17 24 4
16 11 32 16 35 5 4 9 13 9 20 0 8 11 39 25 70 14 31 23 61 19 67 -4 6 -3 8 4
4 6 -3 13 3 17 14 4 11 10 18 15 15 4 -3 10 1 13 8 3 8 -4 13 -18 13 -13 0
-21 -4 -18 -10 4 -5 1 -6 -8 0 -19 11 -58 13 -65 2 -4 -7 17 -12 38 -9 4 0 1
-18 -7 -40 -8 -23 -12 -46 -8 -52 3 -5 2 -7 -3 -4 -6 3 -23 -28 -39 -70 -23
-62 -30 -72 -38 -56 -5 10 -17 27 -26 37 -9 11 -11 16 -5 13 7 -4 0 15 -14 42
-15 27 -31 47 -36 44 -5 -4 -6 -1 -2 6 4 6 2 19 -6 28 -7 9 -8 14 -2 10 7 -4
9 2 6 19 -2 14 -1 24 4 23 17 -3 34 1 34 9 0 9 -150 10 -156 0z m196 -242 c0
-2 -8 -10 -17 -17 -16 -13 -17 -12 -4 4 13 16 21 21 21 13z"/>
<path d="M6524 1208 c-3 -4 4 -8 15 -8 31 0 38 -26 39 -145 0 -125 1 -135 22
-153 13 -12 13 -13 0 -6 -13 6 -13 4 0 -10 22 -23 75 -37 89 -23 6 6 11 8 11
4 0 -4 9 -3 20 3 11 6 17 16 14 22 -4 6 -3 8 4 4 6 -3 18 4 26 16 9 12 17 19
17 15 2 -12 6 -46 8 -63 1 -13 4 -14 16 -4 8 7 15 9 15 6 0 -4 10 -1 23 6 12
7 25 11 30 10 4 -1 7 3 7 9 0 5 5 7 10 4 6 -3 10 -2 10 4 0 6 -13 9 -29 7 -23
-2 -28 0 -24 16 3 10 -1 26 -8 35 -8 9 -9 14 -3 10 13 -8 13 171 0 192 -6 9
-5 12 2 7 7 -4 10 3 9 21 -2 27 -5 28 -60 28 -31 1 -57 -3 -57 -7 0 -7 17 -11
45 -11 6 0 10 -47 9 -122 0 -129 -3 -138 -51 -163 -18 -10 -50 -11 -73 -2 -3
2 -7 2 -10 2 -8 -1 -9 21 -12 172 l-3 130 -27 1 c-16 1 -25 -2 -21 -8 4 -6 1
-7 -8 -2 -19 12 -49 14 -55 3z"/>
<path d="M3500 1048 c0 -27 0 -27 86 -30 47 -2 88 0 91 5 2 4 8 5 13 2 4 -2 7
8 7 23 l-2 28 -97 0 -98 -1 0 -27z"/>
</g>
</svg>
